# xmcd
#
# Track frame offsets: 
#        150
#        7492
#        24675
#        42619
#        61363
#        80726
#        100160
#        118315
#        135823
#        154725
#        172666
#        196886
#        216554
#        236587
#        256606
#        277068
#
# Disc length: 3772 seconds
#
# Revision: 0
# Processed by: cddbd v1.5.2PL0 Copyright (c) Steve Scherf et al.
# Submitted via: ExactAudioCopy v0.99pb4
#
DISCID=e50eba10
DTITLE=Kaysha - Legendary
DYEAR=2007
DGENRE=R&B
TTITLE0=Legendary Intoro
TTITLE1=One More Night
TTITLE2=One Love
TTITLE3=Broke My Heart
TTITLE4=Scandalous
TTITLE5=Don't Change
TTITLE6=Love De Toi
TTITLE7=Mama, My Womam
TTITLE8=Flan Si Bu Ta Shinti
TTITLE9=Can't Do It
TTITLE10=Tell Me What U Like
TTITLE11=Question My Heart
TTITLE12=So Beautiful
TTITLE13=Na Ligi Yo
TTITLE14=Something Going On
TTITLE15=Legendary Outro
EXTD=
EXTT0=
EXTT1=
EXTT2=
EXTT3=
EXTT4=
EXTT5=
EXTT6=
EXTT7=
EXTT8=
EXTT9=
EXTT10=
EXTT11=
EXTT12=
EXTT13=
EXTT14=
EXTT15=
PLAYORDER=
